<?xml version="1.0" encoding="UTF-8"?>
<svg version="1.1" xmlns="http://www.w3.org/2000/svg" width="239" height="251">
<path d="M0 0 C0.99 0.66 1.98 1.32 3 2 C1.52469155 5.98248004 -0.43111989 7.01461876 -4.1875 8.8125 C-14.71060993 14.301024 -20.88748399 22.5840334 -24.421875 33.82421875 C-27.8563178 46.74979063 -26.37599353 58.72350393 -19.796875 70.26953125 C-16.96148409 74.57809266 -13.58975964 78.31001865 -10 82 C-10.66 83.32 -11.32 84.64 -12 86 C-12.90105469 85.67322266 -12.90105469 85.67322266 -13.8203125 85.33984375 C-14.89925781 85.17162109 -14.89925781 85.17162109 -16 85 C-18.1821549 86.94496415 -20.06878421 88.82977235 -22 91 C-23.93121579 93.17022765 -25.8178451 95.05503585 -28 97 C-32.56943213 96.45694264 -34.37148483 93.76413404 -37.1953125 90.3828125 C-41.83418545 84.25789367 -48 75.95079418 -48 68 C-46.02 67.505 -46.02 67.505 -44 67 C-43.72325439 67.51908936 -43.44650879 68.03817871 -43.16137695 68.57299805 C-41.88760596 70.94955517 -40.60021428 73.31847103 -39.3125 75.6875 C-38.65991211 76.91243164 -38.65991211 76.91243164 -37.99414062 78.16210938 C-35.44646917 82.82340456 -32.98582193 86.47380439 -29 90 C-26.03 87.03 -23.06 84.06 -20 81 C-21.0725 79.39125 -22.145 77.7825 -23.25 76.125 C-28.27539091 68.2003451 -31.00045668 61.28007376 -32 52 C-32.6612085 52.00523682 -33.32241699 52.01047363 -34.00366211 52.01586914 C-36.98159851 52.03657656 -39.95951982 52.04964012 -42.9375 52.0625 C-44.49887695 52.07506836 -44.49887695 52.07506836 -46.09179688 52.08789062 C-47.08115234 52.09111328 -48.07050781 52.09433594 -49.08984375 52.09765625 C-50.46450806 52.10551147 -50.46450806 52.10551147 -51.86694336 52.11352539 C-54 52 -54 52 -55 51 C-55.07510712 38.21676883 -52.89852335 26.8618951 -48 15 C-41.375 15.75 -41.375 15.75 -38 18 C-38.46668073 21.6401097 -39.27630789 24.93075441 -40.5 28.375 C-41.97198568 32.60426616 -42.59513542 36.54648966 -43 41 C-39.37 41.33 -35.74 41.66 -32 42 C-31.773125 40.22625 -31.54625 38.4525 -31.3125 36.625 C-29.18783625 24.14076885 -22.2049122 13.48998968 -11.9375 6.0625 C-8.07297491 3.5535314 -4.41484141 1.35148207 0 0 Z " fill="#4F89CB" transform="translate(102,83)"/>
<path d="M0 0 C0.99 0.33 1.98 0.66 3 1 C3.94921875 3.1796875 3.94921875 3.1796875 4.6875 5.875 C5.06455078 7.20144531 5.06455078 7.20144531 5.44921875 8.5546875 C6 11 6 11 6 14 C6.6612085 13.99476318 7.32241699 13.98952637 8.00366211 13.98413086 C10.98159851 13.96342344 13.95951982 13.95035988 16.9375 13.9375 C17.97841797 13.92912109 19.01933594 13.92074219 20.09179688 13.91210938 C21.08115234 13.90888672 22.07050781 13.90566406 23.08984375 13.90234375 C24.00628662 13.89710693 24.92272949 13.89187012 25.86694336 13.88647461 C28 14 28 14 29 15 C30.10775639 25.97104889 28.09065718 40.58716617 22 50 C20.07421875 50.8515625 20.07421875 50.8515625 18 51 C14.75 49.5625 14.75 49.5625 12 48 C12.6300811 43.64850242 13.65635463 39.62157218 15 35.4375 C16.23212673 31.59163386 17.2045707 27.97714648 18 24 C14.04 24 10.08 24 6 24 C5.79375 25.5675 5.5875 27.135 5.375 28.75 C2.85704197 42.27751244 -5.00099318 52.78850909 -15.9375 60.875 C-24.83194618 66.74921368 -33.46836665 69.17778952 -44.0625 69.1875 C-44.76955078 69.19974609 -45.47660156 69.21199219 -46.20507812 69.22460938 C-49.96914521 69.23521238 -52.80796912 69.09762029 -56 67 C-55.67 65.68 -55.34 64.36 -55 63 C-53.865625 63.02320313 -52.73125 63.04640625 -51.5625 63.0703125 C-50.04167332 63.08908814 -48.52083943 63.1072864 -47 63.125 C-46.25621094 63.14175781 -45.51242188 63.15851563 -44.74609375 63.17578125 C-32.47386015 63.28249632 -20.67747246 58.43668032 -11.7421875 49.96484375 C-3.0543317 40.1666566 0.62531665 28.28273417 0.28125 15.3515625 C-0.04884904 11.41788223 -0.73598415 7.70040478 -1.7578125 3.890625 C-1.83773437 3.26671875 -1.91765625 2.6428125 -2 2 C-1.34 1.34 -0.68 0.68 0 0 Z " fill="#518ACB" transform="translate(164,111)"/>
<path d="M0 0 C3.07644087 1.050492 4.51747584 2.37552603 6.5625 4.875 C6.5625 5.535 6.5625 6.195 6.5625 6.875 C7.2225 6.875 7.8825 6.875 8.5625 6.875 C10.078125 8.37890625 10.078125 8.37890625 11.8125 10.4375 C12.43125 11.16195312 13.05 11.88640625 13.6875 12.6328125 C14.88103384 14.06008005 16.06915738 15.49190227 17.25 16.9296875 C17.765625 17.55101563 18.28125 18.17234375 18.8125 18.8125 C19.27140625 19.37839844 19.7303125 19.94429687 20.203125 20.52734375 C21.63412968 22.14517515 21.63412968 22.14517515 24.5625 22.875 C24.315 21.575625 24.315 21.575625 24.0625 20.25 C23.18684605 14.19547842 23.28452522 7.97409369 23.5625 1.875 C24.5625 0.875 24.5625 0.875 28.0625 0.75 C31.5625 0.875 31.5625 0.875 32.5625 1.875 C32.65105161 4.5412603 32.67774673 7.18147114 32.66015625 9.84765625 C32.6587413 10.64529892 32.65732635 11.44294159 32.65586853 12.26475525 C32.65025316 14.82237435 32.63769812 17.37990718 32.625 19.9375 C32.61998698 21.66731645 32.61542373 23.39713426 32.61132812 25.12695312 C32.60027875 29.37633553 32.58300386 33.62565312 32.5625 37.875 C30.7421875 38.93652344 30.7421875 38.93652344 28.5625 39.875 C23.26287576 38.06045474 20.15364501 34.7123168 16.5625 30.625 C16.04067139 30.04596924 15.51884277 29.46693848 14.98120117 28.87036133 C12.23201266 25.80774042 9.53689452 22.70134414 6.875 19.5625 C6.111875 18.675625 5.34875 17.78875 4.5625 16.875 C4.2325 16.875 3.9025 16.875 3.5625 16.875 C3.56773682 17.50591553 3.57297363 18.13683105 3.57836914 18.78686523 C3.59907826 21.62873347 3.61214066 24.47058588 3.625 27.3125 C3.63337891 28.30572266 3.64175781 29.29894531 3.65039062 30.32226562 C3.65361328 31.26650391 3.65683594 32.21074219 3.66015625 33.18359375 C3.66539307 34.05814209 3.67062988 34.93269043 3.67602539 35.83374023 C3.5625 37.875 3.5625 37.875 2.5625 38.875 C-0.9375 39 -0.9375 39 -4.4375 38.875 C-6.45884951 36.85365049 -5.62543109 32.74703886 -5.640625 29.97265625 C-5.64632507 29.17975693 -5.65202515 28.3868576 -5.65789795 27.56993103 C-5.66736098 25.88948914 -5.67388709 24.20902858 -5.67773438 22.52856445 C-5.68744664 19.95165823 -5.7184594 17.37554715 -5.75 14.79882812 C-5.75652907 13.16927559 -5.76177992 11.53971733 -5.765625 9.91015625 C-5.7779718 9.13615982 -5.7903186 8.36216339 -5.80303955 7.56471252 C-5.79394531 5.39086914 -5.79394531 5.39086914 -5.4375 1.875 C-2.4375 -0.125 -2.4375 -0.125 0 0 Z " fill="#FAFAFA" transform="translate(106.4375,108.125)"/>
<path d="M0 0 C3 1.5 3 1.5 5 4 C5.55190591 6.65799971 5.73579122 9.29185999 6 12 C7.80597656 11.65775391 7.80597656 11.65775391 9.6484375 11.30859375 C11.22389475 11.01788438 12.79941912 10.7275386 14.375 10.4375 C15.56609375 10.21030273 15.56609375 10.21030273 16.78125 9.97851562 C22.7734375 8.88671875 22.7734375 8.88671875 25 10 C27.1330477 9.4539208 27.1330477 9.4539208 29.4375 8.5625 C32.24346352 7.53164355 33.97296354 7 37 7 C37 8.32 37 9.64 37 11 C36.24074219 11.25394531 35.48148438 11.50789062 34.69921875 11.76953125 C33.70535156 12.11371094 32.71148437 12.45789063 31.6875 12.8125 C30.70136719 13.14894531 29.71523437 13.48539063 28.69921875 13.83203125 C26.01356596 14.78328838 26.01356596 14.78328838 24.55078125 16.53515625 C18.84703192 21.92282879 5.57623313 21.55161069 -2 22 C-2.33 24.64 -2.66 27.28 -3 30 C-3.66 30 -4.32 30 -5 30 C-5 27.36 -5 24.72 -5 22 C-5.55461914 21.9498877 -6.10923828 21.89977539 -6.68066406 21.84814453 C-9.20461964 21.61538326 -11.72723539 21.37031964 -14.25 21.125 C-15.55904297 21.00705078 -15.55904297 21.00705078 -16.89453125 20.88671875 C-17.73886719 20.80292969 -18.58320312 20.71914062 -19.453125 20.6328125 C-20.22817383 20.55949707 -21.00322266 20.48618164 -21.80175781 20.41064453 C-24.15841885 19.97040643 -25.91656877 19.16622346 -28 18 C-27.67 15.69 -27.34 13.38 -27 11 C-25.741875 10.979375 -24.48375 10.95875 -23.1875 10.9375 C-22.47980469 10.92589844 -21.77210937 10.91429687 -21.04296875 10.90234375 C-19 11 -19 11 -16 12 C-15.95875 10.7625 -15.9175 9.525 -15.875 8.25 C-15.41665391 4.75665953 -15.13226072 4.13226072 -12.5 1.5 C-8.12441851 -0.37524921 -4.68727549 -0.82868959 0 0 Z " fill="#4D7EBA" transform="translate(125,221)"/>
<path d="M0 0 C11.12789855 0.14198276 22.21926456 2.98518563 32.4375 7.25 C31.93037967 10.96888239 31.32141785 13.98454239 29.4375 17.25 C24.37106341 16.34426832 19.58401376 14.75867974 14.69140625 13.1875 C11.02003232 12.06211089 11.02003232 12.06211089 5.4375 11.25 C5.4375 16.2 5.4375 21.15 5.4375 26.25 C-1.5625 27.25 -1.5625 27.25 -4.5625 26.25 C-4.59136751 22.10418113 -4.60925327 17.95838784 -4.625 13.8125 C-4.63337891 12.62849609 -4.64175781 11.44449219 -4.65039062 10.22460938 C-4.65361328 9.09990234 -4.65683594 7.97519531 -4.66015625 6.81640625 C-4.66539307 5.77427979 -4.67062988 4.73215332 -4.67602539 3.65844727 C-4.49440114 -0.19472098 -4.01003916 0.28140626 0 0 Z " fill="#67A0E2" transform="translate(119.5625,56.75)"/>
<path d="M0 0 C0.495 0.99 0.495 0.99 1 2 C3.56901654 3.21878924 6.14267707 4.36934886 8.75 5.5 C17.89091228 9.60794937 25.89030953 14.89030953 33 22 C32.625 24.125 32.625 24.125 32 26 C28.37368784 24.98009971 26.13776649 23.32673561 23.4375 20.8125 C16.62144853 14.61844562 7.23910538 8.20743755 -2.1875 7.5 C-5.38732803 7.21938636 -8.41773614 6.72014751 -11.546875 6.00390625 C-17.37679644 4.80910424 -23.12680068 4.59300394 -29.0625 4.4375 C-31.11601127 4.37788602 -33.16941281 4.31431226 -35.22265625 4.24609375 C-36.11734619 4.22216553 -37.01203613 4.1982373 -37.93383789 4.17358398 C-40 4 -40 4 -41 3 C-41.125 0 -41.125 0 -41 -3 C-34.35730403 -9.64269597 -7.49961491 -3.62300237 0 0 Z " fill="#6AA3E3" transform="translate(148,46)"/>
<path d="M0 0 C3.66015326 1.02941811 5.90091448 2.71088325 8.625 5.25 C13.27245963 9.4749633 18.43213589 12.16888266 24 15 C25.051875 15.61875 26.10375 16.2375 27.1875 16.875 C30.18677678 18.07471071 32.38875344 18.05013142 35.578125 17.90625 C38.61464591 18.02379274 41.30453467 18.75326231 44.25 19.5 C52.20196164 21.35170815 59.89302884 21.19128355 68.01953125 21.0078125 C69.33308594 21.00523437 70.64664063 21.00265625 72 21 C73 22 73 22 73.0625 25.5625 C73.041875 26.696875 73.02125 27.83125 73 29 C63.94509633 33.52745183 46.83050431 30.3668982 37.328125 27.8515625 C35 27 35 27 32 25 C32 24.34 32 23.68 32 23 C31.31292969 22.89816406 30.62585938 22.79632813 29.91796875 22.69140625 C17.8668055 19.83590974 7.48605111 11.658844 -1 3 C-0.67 2.01 -0.34 1.02 0 0 Z " fill="#3279CC" transform="translate(60,188)"/>
<path d="M0 0 C0.79953138 3.28696233 1.09658936 4.71023192 0 8 C-5.50104317 8.0887265 -10.79041956 7.90119756 -16.25 7.21875 C-23.83604672 6.61531447 -30.99736697 7.2635072 -38.5 8.4375 C-40.28104005 8.70841512 -42.06228924 8.97795905 -43.84375 9.24609375 C-45.13261108 9.44029907 -45.13261108 9.44029907 -46.44750977 9.63842773 C-49.64259124 10.09102608 -52.84281713 10.44989073 -56.05249023 10.78125 C-58.72070922 11.08095217 -61.35790219 11.52577732 -64 12 C-64 10.68 -64 9.36 -64 8 C-63.15695313 7.66226562 -62.31390625 7.32453125 -61.4453125 6.9765625 C-59.80175781 6.30753906 -59.80175781 6.30753906 -58.125 5.625 C-57.03445312 5.18414063 -55.94390625 4.74328125 -54.8203125 4.2890625 C-51.93670638 3.16948662 -51.93670638 3.16948662 -50 1 C-47.17316311 0.34650006 -44.42389149 -0.18311136 -41.5625 -0.625 C-40.29780884 -0.82065552 -40.29780884 -0.82065552 -39.00756836 -1.02026367 C-25.97388816 -2.87323889 -12.88744558 -2.88102576 0 0 Z " fill="#67A2E7" transform="translate(142,20)"/>
<path d="M0 0 C1.5078125 1.93359375 1.5078125 1.93359375 3.125 4.4375 C11.13827922 16.24654306 20.98637113 25.40805398 33 33 C32.38722388 35.96175123 31.74627478 37.38058783 30 40 C23.55100262 39.17818087 19.78582966 35.10812823 15 31 C14.16855469 30.30390625 13.33710937 29.6078125 12.48046875 28.890625 C5.8564175 23.17412093 0.40529507 16.85331907 -5 10 C-5.88558594 8.91525391 -5.88558594 8.91525391 -6.7890625 7.80859375 C-8 6 -8 6 -7.9375 3.375 C-7 1 -7 1 -5.125 -0.375 C-3 -1 -3 -1 0 0 Z " fill="#337EDB" transform="translate(33,185)"/>
<path d="M0 0 C6.625 0.75 6.625 0.75 10 3 C9.5401863 6.58654688 8.75760557 9.85179579 7.5625 13.25 C5.87704064 18.09982668 4.92412737 22.95284285 4 28 C8.95 27.67 13.9 27.34 19 27 C19 29.64 19 32.28 19 35 C14.60780588 36.23441558 10.4103096 36.22134086 5.875 36.25 C5.05128906 36.270625 4.22757813 36.29125 3.37890625 36.3125 C2.59128906 36.31765625 1.80367187 36.3228125 0.9921875 36.328125 C0.27401855 36.3374707 -0.44415039 36.34681641 -1.18408203 36.35644531 C-1.78333496 36.23881836 -2.38258789 36.12119141 -3 36 C-5.63175315 32.05237028 -4.76643582 30.61708326 -4 26 C-3.90704724 24.46995745 -3.83789139 22.93833556 -3.7890625 21.40625 C-3.76070312 20.60316406 -3.73234375 19.80007812 -3.703125 18.97265625 C-3.65104887 17.32444687 -3.60677506 15.67597245 -3.5703125 14.02734375 C-3.3634454 8.65741851 -2.41806951 4.81027731 0 0 Z " fill="#478EDD" transform="translate(54,98)"/>
<path d="M0 0 C4.63208567 0.49568444 7.57608367 2.54932761 11.125 5.375 C11.6912207 5.82053223 12.25744141 6.26606445 12.84082031 6.72509766 C22.25158129 14.27424475 32.17118903 23.29339459 38 34 C38.046875 36.7265625 38.046875 36.7265625 37 39 C34.4375 40.3125 34.4375 40.3125 32 41 C24.36202386 31.53976559 24.36202386 31.53976559 21 26.8125 C14.90979161 18.67051018 6.11445755 12.9641263 -2 7 C-1.125 2.25 -1.125 2.25 0 0 Z " fill="#629DE1" transform="translate(177,35)"/>
<path d="M0 0 C1.72880982 -0.05449838 3.45812712 -0.09301688 5.1875 -0.125 C6.15042969 -0.14820312 7.11335937 -0.17140625 8.10546875 -0.1953125 C11 0 11 0 13.36328125 1.0078125 C17.02856178 2.38704399 20.09615502 2.13233373 24 2 C23.88641524 4.95918198 23.75966914 7.91676783 23.625 10.875 C23.57859375 12.13763672 23.57859375 12.13763672 23.53125 13.42578125 C23.49257812 14.23144531 23.45390625 15.03710938 23.4140625 15.8671875 C23.36693115 16.98262939 23.36693115 16.98262939 23.31884766 18.12060547 C23 20 23 20 21 22 C20.61247123 24.3332963 20.61247123 24.3332963 20.5 26.9375 C20.28284471 30.62371105 20.11910421 31.82134368 18 35 C14.65626525 34.44271087 11.96687001 33.64826111 9 32 C9.55105909 28.0507432 10.38935371 24.65079826 12 21 C12.66 21 13.32 21 14 21 C14.99 16.38 15.98 11.76 17 7 C12.05 7 7.1 7 2 7 C1.67 8.98 1.34 10.96 1 13 C0.34 12.34 -0.32 11.68 -1 11 C-0.9765625 8.3984375 -0.9765625 8.3984375 -0.625 5.375 C-0.51414063 4.37210938 -0.40328125 3.36921875 -0.2890625 2.3359375 C-0.19367188 1.56507813 -0.09828125 0.79421875 0 0 Z " fill="#3D88DC" transform="translate(167,127)"/>
<path d="M0 0 C2.64 0 5.28 0 8 0 C8.17015625 1.30453125 8.3403125 2.6090625 8.515625 3.953125 C9.84055202 13.66646716 11.33440156 22.84342413 15 32 C15.36996094 32.92941406 15.73992188 33.85882813 16.12109375 34.81640625 C16.41113281 35.53699219 16.70117188 36.25757813 17 37 C14.60490662 39.89932357 12.68754757 40.50168276 9 41 C3.04975292 30.37455878 -0.18676298 18.30277217 -0.0625 6.125 C-0.05347656 4.97257813 -0.04445313 3.82015625 -0.03515625 2.6328125 C-0.02355469 1.76398438 -0.01195313 0.89515625 0 0 Z " fill="#428CD8" transform="translate(32,129)"/>
<path d="M0 0 C5.40415508 0.80809796 10.63003301 2.13717641 15.90234375 3.5390625 C20.59326792 4.7502067 25.18147323 5.48257431 30 6 C30 9.3 30 12.6 30 16 C25.57718121 17.1057047 22.31288498 16.62423388 17.9375 15.8125 C16.80828125 15.60548462 16.80828125 15.60548462 15.65625 15.39428711 C2.7783544 12.90813782 2.7783544 12.90813782 -2 10 C-2.87109375 8.07421875 -2.87109375 8.07421875 -3 6 C-1.5625 2.75 -1.5625 2.75 0 0 Z " fill="#2B7AD8" transform="translate(91,186)"/>
<path d="M0 0 C3.34442133 1.7112506 3.98275506 5.09654763 5.1328125 8.46484375 C5.39143066 9.19622559 5.65004883 9.92760742 5.91650391 10.68115234 C9.47913758 20.99523896 10.29156986 30.08692114 10.0078125 41.02734375 C7.67486475 41.06976098 5.34078683 41.06827312 3.0078125 41.02734375 C1.47692947 39.49646072 1.66794763 37.92171472 1.4296875 35.79296875 C0.25585113 26.1256638 -0.94454217 17.50851652 -5.1015625 8.62109375 C-6.12626858 5.636862 -5.87963199 4.01435203 -4.9921875 1.02734375 C-1.9921875 0.02734375 -1.9921875 0.02734375 0 0 Z " fill="#5395DD" transform="translate(197.9921875,89.97265625)"/>
<path d="M0 0 C0.66 0.33 1.32 0.66 2 1 C2 1.66 2 2.32 2 3 C2.66 3 3.32 3 4 3 C-0.15198331 12.14234787 -9.03300552 17.46402735 -17.96875 21.26171875 C-26.24282679 24.18017406 -37.99453159 26.49355424 -46.46484375 22.9765625 C-46.97144531 22.65429688 -47.47804688 22.33203125 -48 22 C-47.67 20.68 -47.34 19.36 -47 18 C-45.865625 18.02320313 -44.73125 18.04640625 -43.5625 18.0703125 C-42.04167332 18.08908814 -40.52083943 18.1072864 -39 18.125 C-38.25621094 18.14175781 -37.51242188 18.15851563 -36.74609375 18.17578125 C-24.06249239 18.28607344 -12.82087788 13.14574235 -3.5234375 4.61328125 C-1.79255949 2.87079685 -1.79255949 2.87079685 0 0 Z " fill="#427DC0" transform="translate(156,156)"/>
<path d="M0 0 C2.34765625 0.41796875 2.34765625 0.41796875 4.91015625 2.04296875 C6.73765463 5.0623139 7.34765625 6.86415349 7.34765625 10.41796875 C6.55702479 13.29728333 5.52213855 15.35079856 3.34765625 17.41796875 C0.27869825 18.5952599 -2.39783607 18.83565958 -5.65234375 18.41796875 C-8.57377792 16.65293561 -10.13158192 15.4594924 -11.65234375 12.41796875 C-12.01993735 8.52147659 -11.94668765 6.04679435 -10.27734375 2.48046875 C-6.79578155 -0.25504441 -4.33660584 -0.23630989 0 0 Z " fill="#E7E7E7" transform="translate(122.65234375,222.58203125)"/>
<path d="M0 0 C3 1 3 1 4.61328125 3.87890625 C5.18723007 5.10326332 5.75322621 6.33137031 6.3125 7.5625 C8.99241749 13.21618242 11.93308915 18.20313079 16 23 C16.45890625 22.60167969 16.9178125 22.20335937 17.390625 21.79296875 C20.52271585 19.08857938 23.63877459 16.42008229 27 14 C27 14.66 27 15.32 27 16 C28.98 16 30.96 16 33 16 C33 15.34 33 14.68 33 14 C32.01 14 31.02 14 30 14 C29.67 12.35 29.34 10.7 29 9 C31.31 10.98 33.62 12.96 36 15 C35.34 16.32 34.68 17.64 34 19 C33.39929688 18.78214844 32.79859375 18.56429687 32.1796875 18.33984375 C31.46039063 18.22769531 30.74109375 18.11554688 30 18 C27.8178451 19.94496415 25.93121579 21.82977235 24 24 C22.06878421 26.17022765 20.1821549 28.05503585 18 30 C13.43056787 29.45694264 11.62851517 26.76413404 8.8046875 23.3828125 C4.16581455 17.25789367 -2 8.95079418 -2 1 C-1.34 0.67 -0.68 0.34 0 0 Z " fill="#4481C8" transform="translate(56,150)"/>
<path d="M0 0 C0.99 0.66 1.98 1.32 3 2 C1.52469155 5.98248004 -0.43111989 7.01461876 -4.1875 8.8125 C-15.26233798 14.58878804 -21.05649237 23.37703014 -25 35 C-25.99 34.67 -26.98 34.34 -28 34 C-28.66 36.31 -29.32 38.62 -30 41 C-30.66 41 -31.32 41 -32 41 C-30.49374413 31.17347359 -27.97210507 23.96280675 -22 16 C-20.8553125 14.39125 -20.8553125 14.39125 -19.6875 12.75 C-14.24589773 7.18184884 -7.5000734 2.29594084 0 0 Z " fill="#6797DA" transform="translate(102,83)"/>
<path d="M0 0 C21.66839378 2.00633276 21.66839378 2.00633276 28 5 C28.33 5.66 28.66 6.32 29 7 C31.56901654 8.21878924 34.14267707 9.36934886 36.75 10.5 C45.89091228 14.60794937 53.89030953 19.89030953 61 27 C60.625 29.125 60.625 29.125 60 31 C56.37368784 29.98009971 54.13776649 28.32673561 51.4375 25.8125 C44.47182378 19.48247484 35.09403612 13.23137271 25.5 12.4375 C22.27570756 12.13606365 19.16454493 11.71457466 16 11 C16 10.67 16 10.34 16 10 C20.455 9.505 20.455 9.505 25 9 C25 7.68 25 6.36 25 5 C24.15695313 4.93941406 23.31390625 4.87882812 22.4453125 4.81640625 C20.80175781 4.69072266 20.80175781 4.69072266 19.125 4.5625 C18.03445312 4.48128906 16.94390625 4.40007813 15.8203125 4.31640625 C13 4 13 4 11 3 C9.12943209 2.7724985 7.25314042 2.59037189 5.375 2.4375 C4.37210937 2.35371094 3.36921875 2.26992188 2.3359375 2.18359375 C1.56507812 2.12300781 0.79421875 2.06242187 0 2 C0 1.34 0 0.68 0 0 Z " fill="#76A3D4" transform="translate(120,41)"/>
<path d="M0 0 C1.485 0.99 1.485 0.99 3 2 C1.68226796 5.00828582 0.39598781 6.73996372 -2.1875 8.75 C-12.03730507 16.9106856 -19.57305569 27.90387444 -25.578125 39.1015625 C-27 41 -27 41 -29.171875 41.7734375 C-29.77515625 41.84820312 -30.3784375 41.92296875 -31 42 C-31.66140041 36.94223216 -29.38011559 33.59555712 -26.75 29.5 C-26.30470947 28.79875 -25.85941895 28.0975 -25.40063477 27.375 C-18.5020132 16.84282616 -9.63297642 8.05180605 0 0 Z " fill="#7BA5D4" transform="translate(52,43)"/>
<path d="M0 0 C3.66015326 1.02941811 5.90091448 2.71088325 8.625 5.25 C13.27245963 9.4749633 18.43213589 12.16888266 24 15 C25.051875 15.61875 26.10375 16.2375 27.1875 16.875 C30.18135184 18.07254074 32.37886081 18.0488375 35.5625 17.91015625 C38.66893643 18.02465631 41.47615609 18.71933707 44.5 19.4375 C52.32358413 21.23641522 60.00784321 21.69899669 68 22 C68 22.33 68 22.66 68 23 C64.47923768 23.05855176 60.9586024 23.0937806 57.4375 23.125 C55.9515332 23.15013672 55.9515332 23.15013672 54.43554688 23.17578125 C48.82416068 23.21306621 44.32073258 22.73933858 39 21 C37.68 21 36.36 21 35 21 C35 22.65 35 24.3 35 26 C34.01 25.67 33.02 25.34 32 25 C32 24.34 32 23.68 32 23 C31.31292969 22.89816406 30.62585938 22.79632813 29.91796875 22.69140625 C17.8668055 19.83590974 7.48605111 11.658844 -1 3 C-0.67 2.01 -0.34 1.02 0 0 Z " fill="#4077BC" transform="translate(60,188)"/>
<path d="M0 0 C2.0625 0.4375 2.0625 0.4375 4 1 C-2.21521759 16.29601836 -13.4284448 31.38681506 -27 41 C-29.1875 40.6328125 -29.1875 40.6328125 -31 40 C-29.88559348 36.65678045 -29.02527657 35.93980381 -26.375 33.75 C-15.95121107 24.82590361 -8.27084022 14.77923764 -1.875 2.609375 C-1 1 -1 1 0 0 Z " fill="#5A8CC3" transform="translate(216,175)"/>
<path d="M0 0 C0 1.32 0 2.64 0 4 C-0.75925781 4.25394531 -1.51851562 4.50789062 -2.30078125 4.76953125 C-3.29464844 5.11371094 -4.28851563 5.45789063 -5.3125 5.8125 C-6.29863281 6.14894531 -7.28476563 6.48539063 -8.30078125 6.83203125 C-10.98594572 7.77426311 -10.98594572 7.77426311 -12.390625 9.52734375 C-14.95331606 11.87233047 -18.12244824 12.14610754 -21.4375 12.75 C-22.44006836 12.95689453 -22.44006836 12.95689453 -23.46289062 13.16796875 C-26.90640135 13.83005109 -29.67210907 14.25966204 -33 13 C-31.6508082 7.48057901 -31.6508082 7.48057901 -28.8046875 5.37890625 C-25.75671305 3.88038956 -23.16286722 3.26608141 -19.8125 2.75 C-18.76707031 2.57984375 -17.72164062 2.4096875 -16.64453125 2.234375 C-14 2 -14 2 -12 3 C-9.8669523 2.4539208 -9.8669523 2.4539208 -7.5625 1.5625 C-4.75653648 0.53164355 -3.02703646 0 0 0 Z " fill="#467DC3" transform="translate(162,228)"/>
<path d="M0 0 C0 0.66 0 1.32 0 2 C-0.61488281 2.01417969 -1.22976562 2.02835938 -1.86328125 2.04296875 C-4.33499473 2.18882744 -6.59677148 2.39493183 -9 3 C-11.1386077 5.38987933 -11.1386077 5.38987933 -12 8 C-10.95005859 7.76990234 -10.95005859 7.76990234 -9.87890625 7.53515625 C-0.94449591 5.87434999 8.31007295 5.88713951 17.375 5.8125 C18.62228882 5.79304321 18.62228882 5.79304321 19.89477539 5.77319336 C25.26289322 5.76514038 29.8423854 6.50014196 35 8 C35 6.02 35 4.04 35 2 C34.34 1.67 33.68 1.34 33 1 C34.32 1.33 35.64 1.66 37 2 C36.67 4.31 36.34 6.62 36 9 C30.49895683 9.0887265 25.20958044 8.90119756 19.75 8.21875 C12.16395328 7.61531447 5.00263303 8.2635072 -2.5 9.4375 C-4.28104005 9.70841512 -6.06228924 9.97795905 -7.84375 10.24609375 C-9.13261108 10.44029907 -9.13261108 10.44029907 -10.44750977 10.63842773 C-13.64259124 11.09102608 -16.84281713 11.44989073 -20.05249023 11.78125 C-22.72070922 12.08095217 -25.35790219 12.52577732 -28 13 C-28 11.68 -28 10.36 -28 9 C-27.15695313 8.66226562 -26.31390625 8.32453125 -25.4453125 7.9765625 C-24.34960938 7.53054687 -23.25390625 7.08453125 -22.125 6.625 C-21.03445312 6.18414063 -19.94390625 5.74328125 -18.8203125 5.2890625 C-15.93670638 4.16948662 -15.93670638 4.16948662 -14 2 C-11.7578125 1.3671875 -11.7578125 1.3671875 -9.125 0.875 C-8.26132813 0.70742188 -7.39765625 0.53984375 -6.5078125 0.3671875 C-4 0 -4 0 0 0 Z " fill="#7CA5D3" transform="translate(106,19)"/>
<path d="M0 0 C1.32 0.33 2.64 0.66 4 1 C2.99274468 4.32394256 1.62561413 6.54583182 -0.6875 9.0625 C-6.64984869 15.75374217 -10.84881234 23.94080915 -14.078125 32.2578125 C-15 34 -15 34 -18 36 C-19.1484375 34.375 -19.1484375 34.375 -20 32 C-16.46215989 20.09698656 -8.24682849 9.07151134 0 0 Z " fill="#77A2D5" transform="translate(58,69)"/>
<path d="M0 0 C0.99 0.33 1.98 0.66 3 1 C1.49795231 13.54875287 -6.98345094 26.08631503 -16.5 34.125 C-17.7375 35.053125 -17.7375 35.053125 -19 36 C-19.66 35.67 -20.32 35.34 -21 35 C-19.99941967 31.44238105 -18.45434364 29.33675597 -15.9375 26.75 C-10.63721451 20.96079929 -7.49464288 13.82195828 -3.97851562 6.87744141 C-2.75109854 4.52244206 -1.4044141 2.25328464 0 0 Z " fill="#5087C4" transform="translate(199,155)"/>
<path d="M0 0 C7.57786937 7.11860456 13.60626 15.06900968 17 25 C17 26.32 17 27.64 17 29 C15.35 29 13.7 29 12 29 C11.50371094 27.9378125 11.00742188 26.875625 10.49609375 25.78125 C5.55567793 15.35415217 5.55567793 15.35415217 -1.84765625 6.578125 C-3 5 -3 5 -2.80859375 2.859375 C-2 1 -2 1 0 0 Z " fill="#6997D5" transform="translate(169,80)"/>
<path d="M0 0 C4.75639456 0.47740763 7.75299065 2.72293597 11.375 5.625 C11.94500732 6.07214355 12.51501465 6.51928711 13.10229492 6.97998047 C17.37780051 10.38162898 21.26585141 14.00532941 25 18 C24.01 18 23.02 18 22 18 C21.34 17.34 20.68 16.68 20 16 C18.68252676 15.30251417 17.35085807 14.63040043 16 14 C16.33 13.34 16.66 12.68 17 12 C16.34 12 15.68 12 15 12 C15 11.34 15 10.68 15 10 C14.01 10.33 13.02 10.66 12 11 C12.4793247 15.31392226 13.7457985 17.16569547 17 20 C16.67 20.66 16.34 21.32 16 22 C15.53851563 21.50371094 15.07703125 21.00742187 14.6015625 20.49609375 C9.52398111 15.2077827 4.12389306 11.01566758 -2 7 C-1.125 2.25 -1.125 2.25 0 0 Z " fill="#6E9DD9" transform="translate(177,35)"/>
<path d="M0 0 C1.9375 0.375 1.9375 0.375 4 1 C4.33 1.66 4.66 2.32 5 3 C-1.47852382 10.83255613 -8.59129533 18.75685868 -18 23 C-20.4375 22.75 -20.4375 22.75 -22 22 C-21.8203125 20.20703125 -21.8203125 20.20703125 -21 18 C-18.7421875 16.32421875 -18.7421875 16.32421875 -15.875 14.6875 C-9.41854026 10.7800841 -4.2624943 6.26837398 0 0 Z " fill="#3F7ACD" transform="translate(171,169)"/>
<path d="M0 0 C0.55429688 0.22300781 1.10859375 0.44601563 1.6796875 0.67578125 C1.5546875 2.4140625 1.5546875 2.4140625 0.6796875 4.67578125 C-1.9453125 6.71875 -1.9453125 6.71875 -5.3203125 8.86328125 C-11.38563887 12.83277957 -16.41380954 17.31285941 -21.3203125 22.67578125 C-22.3103125 22.34578125 -23.3003125 22.01578125 -24.3203125 21.67578125 C-23.6033122 14.72829563 -18.34210078 11.0293477 -13.3203125 6.67578125 C-3.76761348 -0.52645104 -3.76761348 -0.52645104 0 0 Z " fill="#6C9FD3" transform="translate(89.3203125,68.32421875)"/>
<path d="M0 0 C0.85271484 0.19916016 0.85271484 0.19916016 1.72265625 0.40234375 C6.47151097 1.4884758 11.16780324 2.38312382 16 3 C16 3.66 16 4.32 16 5 C18.31 5 20.62 5 23 5 C23 7.31 23 9.62 23 12 C16.94909807 11.61581575 12.64861616 10.56033109 7.21875 7.921875 C3.82819259 6.51312228 0.64636451 6.26519015 -3 6 C-3 5.34 -3 4.68 -3 4 C-2.34 4 -1.68 4 -1 4 C-0.67 2.68 -0.34 1.36 0 0 Z " fill="#2575DC" transform="translate(96,190)"/>
<path d="M0 0 C1.5078125 1.93359375 1.5078125 1.93359375 3.125 4.4375 C6.93688645 10.09411094 11.33978132 15.03332703 16 20 C12.28746836 20 10.95526934 19.216452 8 17 C7.2884375 15.4840625 7.2884375 15.4840625 6.5625 13.9375 C5.23747568 10.70884225 5.23747568 10.70884225 1.8125 9.625 C0.4203125 9.315625 0.4203125 9.315625 -1 9 C0.1858237 12.37503669 1.27573689 14.64722731 4 17 C3.67 17.99 3.34 18.98 3 20 C1.12653299 17.7848126 -0.72284851 15.55548555 -2.5625 13.3125 C-3.09552734 12.68666016 -3.62855469 12.06082031 -4.17773438 11.41601562 C-8.01037463 6.69321377 -8.01037463 6.69321377 -7.95703125 3.12890625 C-7 1 -7 1 -5.125 -0.375 C-3 -1 -3 -1 0 0 Z " fill="#3E7DD0" transform="translate(33,185)"/>
<path d="M0 0 C3 1.5 3 1.5 5 4 C5.6941666 6.73491202 5.85771032 9.15420636 6 12 C7.32 11.67 8.64 11.34 10 11 C10 11.66 10 12.32 10 13 C9.38125 13.226875 8.7625 13.45375 8.125 13.6875 C5.38589791 15.37929835 4.94975528 16.99244161 4 20 C5.32 20.33 6.64 20.66 8 21 C3.05 21.495 3.05 21.495 -2 22 C-2.33 24.64 -2.66 27.28 -3 30 C-3.66 30 -4.32 30 -5 30 C-5 27.36 -5 24.72 -5 22 C-6.65 21.67 -8.3 21.34 -10 21 C-10.33 20.01 -10.66 19.02 -11 18 C-10.38511719 18.08378906 -9.77023438 18.16757813 -9.13671875 18.25390625 C-8.32847656 18.35574219 -7.52023438 18.45757812 -6.6875 18.5625 C-5.88699219 18.66691406 -5.08648437 18.77132812 -4.26171875 18.87890625 C-1.83182884 19.14755178 -1.83182884 19.14755178 1 18 C3.12941757 14.72982302 4.02903122 12.74029601 3.875 8.8125 C2.94930583 5.83705445 2.42404102 4.8638182 0 3 C-2.40301139 2.48843111 -2.40301139 2.48843111 -5 2.5625 C-6.299375 2.53349609 -6.299375 2.53349609 -7.625 2.50390625 C-10.13922193 2.79474177 -10.13922193 2.79474177 -11.76953125 4.85546875 C-13.13994118 7.24389749 -13.62298079 9.2854617 -14 12 C-14.66 12 -15.32 12 -16 12 C-15.75862069 4.75862069 -15.75862069 4.75862069 -12.5 1.5 C-8.12441851 -0.37524921 -4.68727549 -0.82868959 0 0 Z " fill="#758698" transform="translate(125,221)"/>
<path d="M0 0 C2.19759555 3.29639333 3.34225802 6.58659793 4.5625 10.3125 C4.78357422 10.96412109 5.00464844 11.61574219 5.23242188 12.28710938 C7.38576322 18.78616679 8.12694706 24.54361172 8.0625 31.375 C8.05347656 32.62023437 8.04445312 33.86546875 8.03515625 35.1484375 C8.02355469 36.08945313 8.01195312 37.03046875 8 38 C5.66705225 38.04241723 3.33297433 38.04092937 1 38 C-0.94090826 36.05909174 -0.39919435 32.52706098 -0.5625 29.9375 C-0.64628906 28.64714844 -0.73007813 27.35679688 -0.81640625 26.02734375 C-0.87699219 25.02832031 -0.93757812 24.02929688 -1 23 C-0.34 23 0.32 23 1 23 C2.26237731 25.52475462 2.09856404 27.31200466 2.0625 30.125 C2.05347656 31.03507812 2.04445312 31.94515625 2.03515625 32.8828125 C2.02355469 33.58148438 2.01195312 34.28015625 2 35 C2.99 35 3.98 35 5 35 C4.77567691 25.00640623 4.2766228 16.06799304 0.83984375 6.6015625 C0 4 0 4 0 0 Z " fill="#6091C8" transform="translate(200,93)"/>
<path d="M0 0 C0.66 0.33 1.32 0.66 2 1 C2 1.66 2 2.32 2 3 C2.66 3 3.32 3 4 3 C0.88936488 9.91926642 -5.11838493 15.01363874 -12 18 C-14.4375 17.25 -14.4375 17.25 -16 16 C-14.80180026 12.40540078 -13.97177544 12.13392304 -10.8125 10.25 C-6.26607783 7.35946322 -3.30317601 4.23484104 0 0 Z " fill="#4383CB" transform="translate(156,156)"/>
<path d="M0 0 C1.72880982 -0.05449838 3.45812712 -0.09301688 5.1875 -0.125 C6.15042969 -0.14820312 7.11335937 -0.17140625 8.10546875 -0.1953125 C11.1567136 0.01057447 13.23203757 0.74394982 16 2 C16.99 2.33 17.98 2.66 19 3 C18.34 3.66 17.68 4.32 17 5 C17 5.99 17 6.98 17 8 C16.34 7.67 15.68 7.34 15 7 C12.7927077 6.92907158 10.58332548 6.91584975 8.375 6.9375 C6.59222656 6.95103516 6.59222656 6.95103516 4.7734375 6.96484375 C3.40058594 6.98224609 3.40058594 6.98224609 2 7 C1.67 8.98 1.34 10.96 1 13 C0.34 12.34 -0.32 11.68 -1 11 C-0.9765625 8.3984375 -0.9765625 8.3984375 -0.625 5.375 C-0.51414063 4.37210938 -0.40328125 3.36921875 -0.2890625 2.3359375 C-0.19367188 1.56507813 -0.09828125 0.79421875 0 0 Z " fill="#438CE3" transform="translate(167,127)"/>
<path d="M0 0 C0 0.99 0 1.98 0 3 C-0.63808594 3.12117187 -1.27617187 3.24234375 -1.93359375 3.3671875 C-2.75988281 3.53476563 -3.58617187 3.70234375 -4.4375 3.875 C-5.26121094 4.03742188 -6.08492187 4.19984375 -6.93359375 4.3671875 C-7.61550781 4.57601562 -8.29742187 4.78484375 -9 5 C-9.33 5.66 -9.66 6.32 -10 7 C-13.64473199 7.89093449 -16.42742531 8.23666047 -20 7 C-18.125 1.125 -18.125 1.125 -17 0 C-14.90200836 -0.26334623 -12.79557424 -0.46085629 -10.6875 -0.625 C-9.53636719 -0.72039062 -8.38523438 -0.81578125 -7.19921875 -0.9140625 C-4.47951309 -0.98711931 -2.55318105 -0.8447562 0 0 Z " fill="#3775D1" transform="translate(149,234)"/>
<path d="M0 0 C3.10742423 1.46818668 5.90471739 3.20025 8.75 5.125 C9.94882812 5.93324219 9.94882812 5.93324219 11.171875 6.7578125 C11.77515625 7.16773438 12.3784375 7.57765625 13 8 C12.38722388 10.96175123 11.74627478 12.38058783 10 15 C4.55791766 14.65986985 1.06331802 11.29703472 -3 8 C0 7 0 7 3 7 C2.65213292 5.02463255 2.65213292 5.02463255 2 3 C1.34 2.67 0.68 2.34 0 2 C0 1.34 0 0.68 0 0 Z " fill="#407AC4" transform="translate(53,210)"/>
<path d="M0 0 C4.65655659 1.30965654 7.50416621 4.07221654 10.99609375 7.24609375 C13.5226989 9.4574889 16.15637413 11.22273383 19 13 C18.67 13.99 18.34 14.98 18 16 C13.62782891 15.47596518 11.29555587 13.98501486 7.9375 11.1875 C7.10089844 10.50042969 6.26429687 9.81335938 5.40234375 9.10546875 C3.17122144 7.15006237 1.06828854 5.12560832 -1 3 C-0.67 2.01 -0.34 1.02 0 0 Z " fill="#487EC4" transform="translate(60,188)"/>
<path d="M0 0 C3.73487777 0.4979837 5.81237635 0.87491756 9 3 C6.36 3 3.72 3 1 3 C1.33 4.98 1.66 6.96 2 9 C3.98567708 9.1953125 5.97135417 9.390625 7.95703125 9.5859375 C10 10 10 10 13 12 C15.04705225 12.59739945 17.11233108 13.13409983 19.1875 13.625 C20.27417969 13.88539063 21.36085938 14.14578125 22.48046875 14.4140625 C23.31191406 14.60742188 24.14335938 14.80078125 25 15 C25 15.33 25 15.66 25 16 C19.79793881 16.19465777 15.45231652 15.56078822 10.4375 14.1875 C9.17808594 13.85105469 7.91867188 13.51460937 6.62109375 13.16796875 C3.19209027 12.06195792 0.16797084 10.70357754 -3 9 C-2.44271087 5.65626525 -1.64826111 2.96687001 0 0 Z " fill="#3975BD" transform="translate(91,186)"/>
<path d="M0 0 C0.99 0.33 1.98 0.66 3 1 C3 5.29 3 9.58 3 14 C3.99 14 4.98 14 6 14 C6 15.65 6 17.3 6 19 C4.35 19 2.7 19 1 19 C0.5196682 17.41701974 0.04078388 15.83360022 -0.4375 14.25 C-0.70433594 13.36828125 -0.97117188 12.4865625 -1.24609375 11.578125 C-1.61927734 10.30195313 -1.61927734 10.30195313 -2 9 C-2.226875 8.2884375 -2.45375 7.576875 -2.6875 6.84375 C-3.18052661 3.93489301 -1.61526843 2.32598654 0 0 Z " fill="#3D87E1" transform="translate(40,148)"/>
<path d="M0 0 C0.99 0.33 1.98 0.66 3 1 C3.103125 1.969375 3.20625 2.93875 3.3125 3.9375 C3.85364121 7.83689992 5.04968864 11.38693349 6.37890625 15.08203125 C7 17 7 17 7 19 C8.65 19 10.3 19 12 19 C12 17.35 12 15.7 12 14 C11.01 14 10.02 14 9 14 C9 11.03 9 8.06 9 5 C11.40804568 7.40804568 12.00768759 9.42203775 13.125 12.625 C13.47820313 13.62789062 13.83140625 14.63078125 14.1953125 15.6640625 C14.46085937 16.43492187 14.72640625 17.20578125 15 18 C12.44722581 20.79233071 10.77639718 21.48967606 7 22 C3.2626738 15.04084088 0 8.01404858 0 0 Z " fill="#5A86BE" transform="translate(34,148)"/>
<path d="M0 0 C0 0.66 0 1.32 0 2 C-8.00694109 6.98209668 -15.93166568 6.40056446 -25 6 C-25 4.68 -25 3.36 -25 2 C-23.91460937 1.93941406 -22.82921875 1.87882813 -21.7109375 1.81640625 C-20.26561514 1.73193936 -18.82030318 1.64729449 -17.375 1.5625 C-16.66214844 1.52318359 -15.94929688 1.48386719 -15.21484375 1.44335938 C-10.11793953 1.13941555 -5.08124223 0 0 0 Z " fill="#397FD1" transform="translate(137,174)"/>
<path d="M0 0 C0.33 0 0.66 0 1 0 C1.02726927 2.35424675 1.04696719 4.70816962 1.0625 7.0625 C1.07410156 8.37347656 1.08570313 9.68445313 1.09765625 11.03515625 C1 15 1 15 0.43359375 18.87109375 C-0.2865992 21.8982633 -0.2865992 21.8982633 1 24 C1.84763916 23.98428955 1.84763916 23.98428955 2.71240234 23.96826172 C5.26655653 23.92675212 7.82063982 23.9006904 10.375 23.875 C11.26445313 23.85824219 12.15390625 23.84148437 13.0703125 23.82421875 C13.92109375 23.81777344 14.771875 23.81132812 15.6484375 23.8046875 C16.82672119 23.78897705 16.82672119 23.78897705 18.02880859 23.77294922 C20 24 20 24 22 26 C21.34 26.99 20.68 27.98 20 29 C20 28.01 20 27.02 20 26 C19.3387915 26.00523682 18.67758301 26.01047363 17.99633789 26.01586914 C15.01840149 26.03657656 12.04048018 26.04964012 9.0625 26.0625 C7.50112305 26.07506836 7.50112305 26.07506836 5.90820312 26.08789062 C4.91884766 26.09111328 3.92949219 26.09433594 2.91015625 26.09765625 C1.53549194 26.10551147 1.53549194 26.10551147 0.13305664 26.11352539 C-2 26 -2 26 -3 25 C-2.96116181 22.29626453 -2.85305598 19.6340214 -2.6875 16.9375 C-2.65205078 16.19822266 -2.61660156 15.45894531 -2.58007812 14.69726562 C-2.27994597 9.57710066 -1.3743048 4.94188786 0 0 Z " fill="#5C95C5" transform="translate(50,109)"/>
<path d="M0 0 C0.83595703 0.00451172 1.67191406 0.00902344 2.53320312 0.01367188 C4.58466649 0.02539452 6.63609273 0.04332797 8.6875 0.0625 C8.6875 1.3825 8.6875 2.7025 8.6875 4.0625 C5.41683434 4.14956892 2.14646635 4.20291241 -1.125 4.25 C-2.05376953 4.27513672 -2.98253906 4.30027344 -3.93945312 4.32617188 C-5.2784668 4.34067383 -5.2784668 4.34067383 -6.64453125 4.35546875 C-7.46671143 4.3711792 -8.2888916 4.38688965 -9.13598633 4.40307617 C-11.78752434 3.98816921 -12.64513592 3.10720249 -14.3125 1.0625 C-9.54157044 -0.17152862 -4.88780554 -0.05015112 0 0 Z " fill="#1F77DE" transform="translate(121.3125,211.9375)"/>
<path d="M0 0 C0.99 0 1.98 0 3 0 C3.81434143 2.85160391 4.11881242 5.36626131 4.09765625 8.328125 C4.09443359 9.12734375 4.09121094 9.9265625 4.08789062 10.75 C4.07951172 11.575 4.07113281 12.4 4.0625 13.25 C4.05798828 14.09046875 4.05347656 14.9309375 4.04882812 15.796875 C4.03707961 17.86461401 4.01914522 19.93231624 4 22 C3.01 22 2.02 22 1 22 C0.93941406 21.30132812 0.87882813 20.60265625 0.81640625 19.8828125 C0.73261719 18.97273438 0.64882812 18.06265625 0.5625 17.125 C0.48128906 16.22007813 0.40007812 15.31515625 0.31640625 14.3828125 C0.13010715 11.98889139 0.13010715 11.98889139 -1 10 C-1.15348643 6.46981203 -1.04145246 3.38472048 0 0 Z " fill="#4B93E6" transform="translate(201,106)"/>
<path d="M0 0 C6.625 0.75 6.625 0.75 10 3 C9.32584613 8.2584002 7.75734451 13.02638346 6 18 C5.67 18 5.34 18 5 18 C5 14.04 5 10.08 5 6 C3.68 6.33 2.36 6.66 1 7 C1.33 6.01 1.66 5.02 2 4 C2.66 3.67 3.32 3.34 4 3 C4 2.34 4 1.68 4 1 C3.34 1 2.68 1 2 1 C0.52952664 4.91063224 0.52952664 4.91063224 0 9 C-0.66 9 -1.32 9 -2 9 C-2.33 9.66 -2.66 10.32 -3 11 C-2.44894091 7.0507432 -1.61064629 3.65079826 0 0 Z " fill="#5F94D3" transform="translate(54,98)"/>
<path d="M0 0 C0.33 0 0.66 0 1 0 C0.95456055 1.01368652 0.95456055 1.01368652 0.90820312 2.04785156 C0.77122114 5.11519434 0.63559613 8.18259566 0.5 11.25 C0.45230469 12.31347656 0.40460938 13.37695312 0.35546875 14.47265625 C0.28779297 16.00986328 0.28779297 16.00986328 0.21875 17.578125 C0.17685547 18.52075195 0.13496094 19.46337891 0.09179688 20.43457031 C0.01353067 22.62186096 0 24.81130953 0 27 C0 29.33333333 0 31.66666667 0 34 C-3.26294968 29.10557548 -3.18065014 25.69047926 -3 20 C-2.67 19.34 -2.34 18.68 -2 18 C-1.95977609 15.6670134 -1.95679753 13.33293334 -2 11 C-3.13888672 11.12568359 -3.13888672 11.12568359 -4.30078125 11.25390625 C-5.29464844 11.35574219 -6.28851563 11.45757812 -7.3125 11.5625 C-8.29863281 11.66691406 -9.28476563 11.77132812 -10.30078125 11.87890625 C-13 12 -13 12 -16 11 C-15.67 10.34 -15.34 9.68 -15 9 C-14.22914062 9.01160156 -13.45828125 9.02320312 -12.6640625 9.03515625 C-11.15972656 9.04869141 -11.15972656 9.04869141 -9.625 9.0625 C-8.12839844 9.07990234 -8.12839844 9.07990234 -6.6015625 9.09765625 C-4.01567547 9.18006602 -4.01567547 9.18006602 -2 8 C-1.31527335 6.11235097 -1.31527335 6.11235097 -0.875 3.9375 C-0.70742187 3.20402344 -0.53984375 2.47054687 -0.3671875 1.71484375 C-0.24601562 1.14894531 -0.12484375 0.58304687 0 0 Z " fill="#508ED4" transform="translate(74,115)"/>
<path d="M0 0 C6.83981276 0.51621228 12.63876684 2.48590969 19 5 C18.49287967 8.71888239 17.88391785 11.73454239 16 15 C11.15311808 14.21824485 6.6233633 12.60155722 2 11 C2 10.67 2 10.34 2 10 C7.65394631 9.65384002 11.03006806 10.56574762 16 13 C16 11.02 16 9.04 16 7 C15.43152344 6.81824219 14.86304688 6.63648437 14.27734375 6.44921875 C9.39298997 4.85915366 4.68970973 3.09540222 0 1 C0 0.67 0 0.34 0 0 Z " fill="#7F9FCA" transform="translate(133,59)"/>
<path d="M0 0 C-0.99 3.3 -1.98 6.6 -3 10 C-3.99 9.67 -4.98 9.34 -6 9 C-6.66 11.31 -7.32 13.62 -8 16 C-8.66 16 -9.32 16 -10 16 C-9.6034029 13.7255757 -9.18199381 11.45546748 -8.75 9.1875 C-8.51796875 7.92292969 -8.2859375 6.65835938 -8.046875 5.35546875 C-7 2 -7 2 -5.078125 -0.01171875 C-3 -1 -3 -1 0 0 Z " fill="#5D97D0" transform="translate(80,108)"/>
<path d="M0 0 C3.52387645 4.11118919 6 7.46508112 6 13 C6.99 13 7.98 13 9 13 C9 13.66 9 14.32 9 15 C7.02 15 5.04 15 3 15 C-1.42857143 7.71428571 -1.42857143 7.71428571 -2 3 C-1.34 3 -0.68 3 0 3 C0 2.01 0 1.02 0 0 Z " fill="#4D86CC" transform="translate(80,151)"/>
<path d="M0 0 C1.051875 0.8971875 1.051875 0.8971875 2.125 1.8125 C4.9280919 4.10892573 4.9280919 4.10892573 8.25 5.5 C11 7 11 7 11.875 9.1875 C11.936875 10.0846875 11.936875 10.0846875 12 11 C8.98968256 11.93423645 8.13349732 12.04449911 5 11 C4.855625 10.360625 4.71125 9.72125 4.5625 9.0625 C4.376875 8.381875 4.19125 7.70125 4 7 C3.34 6.67 2.68 6.34 2 6 C0 5 0 5 -0.8125 2.9375 C-0.874375 2.298125 -0.93625 1.65875 -1 1 C-0.67 0.67 -0.34 0.34 0 0 Z " fill="#2C79DE" transform="translate(45,206)"/>
<path d="M0 0 C1.258125 -0.020625 2.51625 -0.04125 3.8125 -0.0625 C4.52019531 -0.07410156 5.22789063 -0.08570313 5.95703125 -0.09765625 C8 0 8 0 11 1 C11 2.65 11 4.3 11 6 C9.35425434 6.02688151 7.70838587 6.04634123 6.0625 6.0625 C5.14597656 6.07410156 4.22945313 6.08570313 3.28515625 6.09765625 C1 6 1 6 0 5 C-0.04063832 3.33382885 -0.042721 1.66611905 0 0 Z " fill="#2F79D2" transform="translate(99,234)"/>
<path d="M0 0 C3.35162545 3.14214886 6.39768691 6.50035129 9.375 10 C10.08398438 10.825 10.79296875 11.65 11.5234375 12.5 C13 15 13 15 12.88671875 17.73046875 C12 20 12 20 9.4375 21.3125 C8.2309375 21.6528125 8.2309375 21.6528125 7 22 C6.67 21.34 6.34 20.68 6 20 C7.65 19.67 9.3 19.34 11 19 C11 17.68 11 16.36 11 15 C8.66785852 13.79371992 6.50357861 12.8345262 4 12 C3.896875 11.0925 3.79375 10.185 3.6875 9.25 C2.98769896 5.94184965 2.09765898 4.5536718 0 2 C0 1.34 0 0.68 0 0 Z " fill="#6B98CE" transform="translate(202,54)"/>
<path d="M0 0 C0 0.66 0 1.32 0 2 C-1.65 2.33 -3.3 2.66 -5 3 C-5 4.65 -5 6.3 -5 8 C-4.34 8 -3.68 8 -3 8 C-1.4087311 12.873261 -0.78807779 16.80790596 -1 22 C-2.77077487 18.59977972 -4.25334223 15.11707441 -5.6875 11.5625 C-6.37392578 9.89380859 -6.37392578 9.89380859 -7.07421875 8.19140625 C-8.02949365 4.89832781 -7.99649789 3.23106892 -7 0 C-3.86650268 -1.04449911 -3.01031744 -0.93423645 0 0 Z " fill="#6294D0" transform="translate(200,91)"/>
<path d="M0 0 C2.64 0 5.28 0 8 0 C8 2.31 8 4.62 8 7 C7.34 7 6.68 7 6 7 C6 5.68 6 4.36 6 3 C4.68 3 3.36 3 2 3 C2.08378906 3.73605469 2.16757812 4.47210938 2.25390625 5.23046875 C2.35574219 6.20628906 2.45757812 7.18210938 2.5625 8.1875 C2.71912109 9.63189453 2.71912109 9.63189453 2.87890625 11.10546875 C2.99758751 13.94233377 2.67765639 16.25423671 2 19 C1.67 19 1.34 19 1 19 C0.15976812 14.64667264 -0.10770995 10.55557481 -0.0625 6.125 C-0.05347656 4.97257813 -0.04445313 3.82015625 -0.03515625 2.6328125 C-0.02355469 1.76398438 -0.01195313 0.89515625 0 0 Z " fill="#5F8BBD" transform="translate(32,129)"/>
<path d="M0 0 C0.99 0.33 1.98 0.66 3 1 C3.94921875 3.21484375 3.94921875 3.21484375 4.6875 5.9375 C4.93886719 6.83339844 5.19023437 7.72929688 5.44921875 8.65234375 C6 11 6 11 6 13 C5.34 13 4.68 13 4 13 C3.67 11.68 3.34 10.36 3 9 C2.67 10.98 2.34 12.96 2 15 C0.04531941 12.06797912 -0.55258673 10.31995437 -1.25 6.9375 C-1.44078125 6.05964844 -1.6315625 5.18179688 -1.828125 4.27734375 C-1.88484375 3.52582031 -1.9415625 2.77429688 -2 2 C-1.34 1.34 -0.68 0.68 0 0 Z " fill="#5A91CA" transform="translate(164,111)"/>
<path d="M0 0 C0.33 0 0.66 0 1 0 C1.4375 2.0625 1.4375 2.0625 1 5 C-1.00597159 7.72436362 -3.16161225 10.14235598 -6 12 C-8.234375 11.6953125 -8.234375 11.6953125 -10 11 C-10.33 9.35 -10.66 7.7 -11 6 C-9.9275 5.7525 -8.855 5.505 -7.75 5.25 C-3.97861295 3.99287098 -2.54254758 2.93370875 0 0 Z " fill="#3E81CD" transform="translate(80,168)"/>
<path d="M0 0 C0.99 0.33 1.98 0.66 3 1 C2.45660208 5.56454251 1.20536179 8.9728176 -1 13 C-2.32 12.67 -3.64 12.34 -5 12 C-4.37343743 7.73937456 -3.1323664 3.1323664 0 0 Z " fill="#5A8CC8" transform="translate(199,155)"/>
<path d="M0 0 C0.99 0.495 0.99 0.495 2 1 C2 2.32 2 3.64 2 5 C2.66 5 3.32 5 4 5 C4 5.66 4 6.32 4 7 C5.299375 6.979375 6.59875 6.95875 7.9375 6.9375 C12.69382325 6.92995028 17.28388953 7.40112883 22 8 C22 8.66 22 9.32 22 10 C16.49424084 11.2513089 16.49424084 11.2513089 14.15625 10.0625 C11.47432407 8.74097128 9.22259644 8.58732832 6.25 8.375 C5.26515625 8.30023438 4.2803125 8.22546875 3.265625 8.1484375 C2.51796875 8.09945312 1.7703125 8.05046875 1 8 C1 10.64 1 13.28 1 16 C0.67 16 0.34 16 0 16 C0 10.72 0 5.44 0 0 Z " fill="#4E8FDA" transform="translate(166,119)"/>
<path d="M0 0 C0.99 0.33 1.98 0.66 3 1 C1.66090471 5.38249366 -0.08994944 7.57949251 -4 10 C-6.3125 9.75 -6.3125 9.75 -8 9 C-6.92834431 5.78503292 -6.11623226 4.91537488 -3.625 2.75 C-3.01914063 2.20859375 -2.41328125 1.6671875 -1.7890625 1.109375 C-1.19867188 0.74328125 -0.60828125 0.3771875 0 0 Z " fill="#5380BE" transform="translate(193,206)"/>
<path d="M0 0 C1.27875 -0.061875 2.5575 -0.12375 3.875 -0.1875 C4.95394531 -0.23970703 4.95394531 -0.23970703 6.0546875 -0.29296875 C6.69664063 -0.19628906 7.33859375 -0.09960938 8 0 C10 3 10 3 9.625 6.1875 C9.41875 7.115625 9.2125 8.04375 9 9 C7.02 9.33 5.04 9.66 3 10 C2.34 8.68 1.68 7.36 1 6 C3.97 6.495 3.97 6.495 7 7 C7.33 5.35 7.66 3.7 8 2 C7.4225 2.144375 6.845 2.28875 6.25 2.4375 C4.16666667 2.95833333 2.08333333 3.47916667 0 4 C0 2.68 0 1.36 0 0 Z " fill="#696B68" transform="translate(115,227)"/>
<path d="M0 0 C3.64581687 -0.02887512 7.29160463 -0.04675585 10.9375 -0.0625 C12.49887695 -0.07506836 12.49887695 -0.07506836 14.09179688 -0.08789062 C15.57583008 -0.09272461 15.57583008 -0.09272461 17.08984375 -0.09765625 C18.46450806 -0.10551147 18.46450806 -0.10551147 19.86694336 -0.11352539 C22 0 22 0 23 1 C23.07226502 2.85287502 23.0838122 4.70833878 23.0625 6.5625 C23.05347656 7.57441406 23.04445312 8.58632812 23.03515625 9.62890625 C23.02355469 10.41136719 23.01195312 11.19382813 23 12 C22.67 12 22.34 12 22 12 C21.67 9.03 21.34 6.06 21 3 C14.07 2.34 7.14 1.68 0 1 C0 0.67 0 0.34 0 0 Z " fill="#5C92CC" transform="translate(170,125)"/>
<path d="M0 0 C1.8125 0.1875 1.8125 0.1875 4 1 C5.8125 3.375 5.8125 3.375 7 6 C6.67 6.99 6.34 7.98 6 9 C4.125 8.75 4.125 8.75 2 8 C1.7525 7.34 1.505 6.68 1.25 6 C0.20781336 3.82027179 0.20781336 3.82027179 -1.8984375 3.515625 C-3.92516972 3.2738394 -5.96313109 3.1314109 -8 3 C-8 2.67 -8 2.34 -8 2 C-5.36 2 -2.72 2 0 2 C0 1.34 0 0.68 0 0 Z " fill="#E0DEDF" transform="translate(123,224)"/>
<path d="M0 0 C1.32 0 2.64 0 4 0 C4 3.3 4 6.6 4 10 C0 9 0 9 -1 8 C-1.125 4.5 -1.125 4.5 -1 1 C-0.67 0.67 -0.34 0.34 0 0 Z " fill="#6394BF" transform="translate(11,135)"/>
<path d="M0 0 C0.99 0.66 1.98 1.32 3 2 C2.375 3.875 2.375 3.875 1 6 C-2.125 7.25 -2.125 7.25 -5 8 C-4.34 6.68 -3.68 5.36 -3 4 C-3.99 4.66 -4.98 5.32 -6 6 C-7.32 5.67 -8.64 5.34 -10 5 C-6.7 3.35 -3.4 1.7 0 0 Z " fill="#72A3CD" transform="translate(102,83)"/>
<path d="M0 0 C2.97 0.33 5.94 0.66 9 1 C9 4.3 9 7.6 9 11 C7.68 11.33 6.36 11.66 5 12 C5.66 11.67 6.32 11.34 7 11 C7 8.69 7 6.38 7 4 C4.69 4 2.38 4 0 4 C0 2.68 0 1.36 0 0 Z " fill="#436BBB" transform="translate(112,191)"/>
<path d="M0 0 C4.7734375 1.65625 4.7734375 1.65625 6.8125 4.75 C8.03316827 8.09077631 8.25163055 10.4771723 8 14 C7.01 13.67 6.02 13.34 5 13 C3.61328125 10.05859375 3.61328125 10.05859375 2.3125 6.4375 C1.87550781 5.23996094 1.43851563 4.04242188 0.98828125 2.80859375 C0.66214844 1.88175781 0.33601563 0.95492187 0 0 Z " fill="#4786D2" transform="translate(56,153)"/>
<path d="M0 0 C0.66 0.33 1.32 0.66 2 1 C1.875 2.8125 1.875 2.8125 1 5 C-1.875 6.8125 -1.875 6.8125 -5 8 C-5.99 7.67 -6.98 7.34 -8 7 C-7.9375 5.1875 -7.9375 5.1875 -7 3 C-3.5625 1.1875 -3.5625 1.1875 0 0 Z " fill="#80A6C5" transform="translate(87,50)"/>
<path d="M0 0 C2.97923003 -0.02727678 5.95820379 -0.04697128 8.9375 -0.0625 C9.76830078 -0.07087891 10.59910156 -0.07925781 11.45507812 -0.08789062 C17.05226441 -0.10966956 22.44733582 0.28840732 28 1 C28 1.66 28 2.32 28 3 C24.37 3.33 20.74 3.66 17 4 C17 3.01 17 2.02 17 1 C11.39 1 5.78 1 0 1 C0 0.67 0 0.34 0 0 Z " fill="#6B9CD2" transform="translate(111,18)"/>
<path d="M0 0 C-0.25 1.875 -0.25 1.875 -1 4 C-3.49840595 5.87380446 -4.63319166 6.05001932 -7.75 5.625 C-8.4925 5.41875 -9.235 5.2125 -10 5 C-9 2 -9 2 -6.125 0.25 C-3 -1 -3 -1 0 0 Z " fill="#5281B8" transform="translate(161,203)"/>
<path d="M0 0 C0.99 0.33 1.98 0.66 3 1 C3.6875 3.0625 3.6875 3.0625 4 5 C3.01 4.67 2.02 4.34 1 4 C1.37253906 4.84304687 1.74507812 5.68609375 2.12890625 6.5546875 C2.60199219 7.65039062 3.07507812 8.74609375 3.5625 9.875 C4.03816406 10.96554688 4.51382813 12.05609375 5.00390625 13.1796875 C5.33261719 14.11039063 5.66132812 15.04109375 6 16 C5.67 16.66 5.34 17.32 5 18 C3.82592979 15.73272667 2.66060261 13.46165376 1.5 11.1875 C1.16613281 10.54490234 0.83226562 9.90230469 0.48828125 9.24023438 C-1.00239084 6.30452301 -2 4.33873483 -2 1 C-1.34 0.67 -0.68 0.34 0 0 Z " fill="#588BC1" transform="translate(56,150)"/>
<path d="M0 0 C1.9375 0.5625 1.9375 0.5625 4 2 C4.75 5.625 4.75 5.625 5 9 C3.68 9.33 2.36 9.66 1 10 C-0.83691257 6.21812119 -1.15837626 4.05431692 0 0 Z " fill="#6790BF" transform="translate(13,149)"/>
<path d="M0 0 C0.90492187 0.10828125 0.90492187 0.10828125 1.828125 0.21875 C3.02695313 0.35796875 3.02695313 0.35796875 4.25 0.5 C5.03890625 0.5928125 5.8278125 0.685625 6.640625 0.78125 C9.26890397 1.06154619 9.26890397 1.06154619 13 1 C13 1.66 13 2.32 13 3 C11.68 3.33 10.36 3.66 9 4 C8.67 6.64 8.34 9.28 8 12 C7.34 12 6.68 12 6 12 C6 9.36 6 6.72 6 4 C4.35 3.67 2.7 3.34 1 3 C0.67 2.01 0.34 1.02 0 0 Z " fill="#84888D" transform="translate(114,239)"/>
<path d="M0 0 C0.99 0.66 1.98 1.32 3 2 C5.64632287 1.6878236 5.64632287 1.6878236 8 1 C5.54372427 3.631724 3.44647963 5.81527263 0 7 C-2.25 6.625 -2.25 6.625 -4 6 C-3.6875 4.125 -3.6875 4.125 -3 2 C-2.01 1.34 -1.02 0.68 0 0 Z " fill="#367BBC" transform="translate(153,185)"/>
<path d="M0 0 C0.66 0.33 1.32 0.66 2 1 C2 1.66 2 2.32 2 3 C2.66 3 3.32 3 4 3 C2.63016497 6.16115776 2.0109362 6.9927092 -1 9 C-1.33 8.34 -1.66 7.68 -2 7 C-3.65 7.66 -5.3 8.32 -7 9 C-6.02180976 7.68677212 -5.0424189 6.37443848 -4.0625 5.0625 C-3.51722656 4.33160156 -2.97195312 3.60070312 -2.41015625 2.84765625 C-1 1 -1 1 0 0 Z " fill="#4D86C5" transform="translate(156,156)"/>
<path d="M0 0 C1.32 0 2.64 0 4 0 C5.49821059 3.37097383 6 5.20442119 6 9 C4.68 9 3.36 9 2 9 C0.50178941 5.62902617 0 3.79557881 0 0 Z " fill="#769CC5" transform="translate(218,87)"/>
<path d="M0 0 C1.79158489 -0.02696365 3.58328473 -0.04637917 5.375 -0.0625 C6.37273437 -0.07410156 7.37046875 -0.08570313 8.3984375 -0.09765625 C11 0 11 0 13 1 C13.34615998 6.65394631 12.43425238 10.03006806 10 15 C8.59429124 10.46008133 9.38303628 6.66150364 10 2 C6.7 1.67 3.4 1.34 0 1 C0 0.67 0 0.34 0 0 Z " fill="#4F8BD1" transform="translate(171,133)"/>
<path d="M0 0 C1.98 0.495 1.98 0.495 4 1 C4.66 3.31 5.32 5.62 6 8 C4.68 8.33 3.36 8.66 2 9 C0.4375 6.1875 0.4375 6.1875 -1 3 C-0.67 2.01 -0.34 1.02 0 0 Z " fill="#5C83C5" transform="translate(17,164)"/>
<path d="M0 0 C1.32 0.33 2.64 0.66 4 1 C4.33 3.64 4.66 6.28 5 9 C3.35 8.67 1.7 8.34 0 8 C0 5.36 0 2.72 0 0 Z " fill="#6D97BF" transform="translate(223,101)"/>
<path d="M0 0 C6.40140935 0.46555704 11.26769829 2.14711836 17 5 C17 6.65 17 8.3 17 10 C16.67 9.01 16.34 8.02 16 7 C14.1389456 6.0798703 14.1389456 6.0798703 11.875 5.5 C7.75917228 4.2553737 3.92426101 2.75339322 0 1 C0 0.67 0 0.34 0 0 Z " fill="#749FD5" transform="translate(133,59)"/>
<path d="M0 0 C0.99 0.66 1.98 1.32 3 2 C1.63016497 5.16115776 1.0109362 5.9927092 -2 8 C-4.6875 7.625 -4.6875 7.625 -7 7 C-4.78071806 4.09197539 -3.07030857 2.04687238 0 0 Z " fill="#84A1C9" transform="translate(52,43)"/>
<path d="M0 0 C2.0625 0.4375 2.0625 0.4375 4 1 C4 2.65 4 4.3 4 6 C2.35 6.33 0.7 6.66 -1 7 C-1.99 5.68 -2.98 4.36 -4 3 C-3.01 2.34 -2.02 1.68 -1 1 C-0.67 0.67 -0.34 0.34 0 0 Z " fill="#DCDFDD" transform="translate(119,228)"/>
<path d="M0 0 C1.65 0 3.3 0 5 0 C5.125 5.75 5.125 5.75 4 8 C2.68 7.67 1.36 7.34 0 7 C0 4.69 0 2.38 0 0 Z " fill="#6491C8" transform="translate(10,122)"/>
<path d="M0 0 C1.32 0 2.64 0 4 0 C5.4783226 2.95664519 5.06032783 5.74229737 5 9 C3.68 8.67 2.36 8.34 1 8 C0.67 5.36 0.34 2.72 0 0 Z " fill="#6C9BC8" transform="translate(225,116)"/>
<path d="M0 0 C0.598125 0.20625 1.19625 0.4125 1.8125 0.625 C0.66076645 3.09300047 -0.23533565 4.67283565 -2.1875 6.625 C-4.3125 6.25 -4.3125 6.25 -6.1875 5.625 C-5.875 3.75 -5.875 3.75 -5.1875 1.625 C-2.1875 -0.375 -2.1875 -0.375 0 0 Z " fill="#7DA1C7" transform="translate(72.1875,59.375)"/>
<path d="M0 0 C0.66 0 1.32 0 2 0 C2.33 0.99 2.66 1.98 3 3 C2.01 3.66 1.02 4.32 0 5 C1.32 4.67 2.64 4.34 4 4 C3.75 5.875 3.75 5.875 3 8 C0.41847698 9.72101535 -0.84918025 10 -4 10 C-4 9.34 -4 8.68 -4 8 C-3.34 8 -2.68 8 -2 8 C-2.33 7.01 -2.66 6.02 -3 5 C-1.6875 2.3125 -1.6875 2.3125 0 0 Z " fill="#5195DF" transform="translate(56,99)"/>
<path d="M0 0 C-0.75 5.75 -0.75 5.75 -3 8 C-3.99 8 -4.98 8 -6 8 C-6.36458333 3.50347222 -6.36458333 3.50347222 -4.6875 1.1875 C-3 0 -3 0 0 0 Z " fill="#6F9ECF" transform="translate(27,77)"/>
<path d="M0 0 C0 0.66 0 1.32 0 2 C-0.60328125 2.02578125 -1.2065625 2.0515625 -1.828125 2.078125 C-7.10535339 2.40331983 -7.10535339 2.40331983 -11.5625 5.0625 C-12.036875 5.701875 -12.51125 6.34125 -13 7 C-13.99 6.67 -14.98 6.34 -16 6 C-15.3046875 4.078125 -15.3046875 4.078125 -14 2 C-11.7578125 1.171875 -11.7578125 1.171875 -9.125 0.75 C-8.26132813 0.60046875 -7.39765625 0.4509375 -6.5078125 0.296875 C-4 0 -4 0 0 0 Z " fill="#71A1D0" transform="translate(106,19)"/>
<path d="M0 0 C0.66 0 1.32 0 2 0 C2.33 2.31 2.66 4.62 3 7 C2.34 7 1.68 7 1 7 C1 5.68 1 4.36 1 3 C-5.27 3 -11.54 3 -18 3 C-18 2.67 -18 2.34 -18 2 C-16.17662109 1.90912109 -16.17662109 1.90912109 -14.31640625 1.81640625 C-12.73175772 1.73201668 -11.14712298 1.6473679 -9.5625 1.5625 C-8.76005859 1.52318359 -7.95761719 1.48386719 -7.13085938 1.44335938 C-3.24760439 1.5945704 -3.24760439 1.5945704 0 0 Z " fill="#2F78D1" transform="translate(129,209)"/>
<path d="M0 0 C1.65 0.33 3.3 0.66 5 1 C5 2.65 5 4.3 5 6 C1.25 7.125 1.25 7.125 -1 6 C-0.67 4.02 -0.34 2.04 0 0 Z " fill="#759DC8" transform="translate(226,131)"/>
<path d="M0 0 C0.66 0 1.32 0 2 0 C2 0.66 2 1.32 2 2 C2.66 2 3.32 2 4 2 C4 5.3 4 8.6 4 12 C3.01 12 2.02 12 1 12 C0.67 8.04 0.34 4.08 0 0 Z " fill="#438DDE" transform="translate(201,116)"/>
<path d="M0 0 C0.99 0.33 1.98 0.66 3 1 C3.144375 2.134375 3.28875 3.26875 3.4375 4.4375 C3.61171478 7.80777201 3.61171478 7.80777201 5 9 C5.04063832 10.66617115 5.042721 12.33388095 5 14 C4.34 14 3.68 14 3 14 C2.49307308 12.4188708 1.99473557 10.83498617 1.5 9.25 C1.2215625 8.36828125 0.943125 7.4865625 0.65625 6.578125 C0 4 0 4 0 0 Z " fill="#518ACD" transform="translate(34,148)"/>
<path d="M0 0 C1.4540625 0.0309375 1.4540625 0.0309375 2.9375 0.0625 C2.9375 1.3825 2.9375 2.7025 2.9375 4.0625 C0.6275 4.3925 -1.6825 4.7225 -4.0625 5.0625 C-4.0625 0.08290816 -4.0625 0.08290816 0 0 Z " fill="#849FC7" transform="translate(100.0625,45.9375)"/>
<path d="M0 0 C0.99 0.33 1.98 0.66 3 1 C3 1.99 3 2.98 3 4 C1 5.6875 1 5.6875 -1 7 C-2.32 6.34 -3.64 5.68 -5 5 C-3.35 3.35 -1.7 1.7 0 0 Z " fill="#5583B0" transform="translate(171,194)"/>
<path d="M0 0 C-2.97 3.96 -2.97 3.96 -6 8 C-8 4 -8 4 -7.3125 1.8125 C-5.08089354 -1.26924226 -3.46807688 -1.15602563 0 0 Z " fill="#77A2D1" transform="translate(50,50)"/>
<path d="M0 0 C0.33 1.32 0.66 2.64 1 4 C1.99 4 2.98 4 4 4 C4 5.65 4 7.3 4 9 C2.35 9 0.7 9 -1 9 C-2.0326802 6.21176345 -2.04509293 5.1322726 -1.0625 2.25 C-0.711875 1.5075 -0.36125 0.765 0 0 Z " fill="#457FDC" transform="translate(42,158)"/>
<path d="M0 0 C0.66 0.33 1.32 0.66 2 1 C0.515 2.485 0.515 2.485 -1 4 C0.65 4 2.3 4 4 4 C1.42215154 6.64752004 -0.91648098 8.94432065 -4 11 C-3.67 9.02 -3.34 7.04 -3 5 C-3.66 4.67 -4.32 4.34 -5 4 C-3.35 2.68 -1.7 1.36 0 0 Z " fill="#7397CE" transform="translate(90,89)"/>
<path d="M0 0 C1.485 0.99 1.485 0.99 3 2 C3 2.99 3 3.98 3 5 C3.99 5 4.98 5 6 5 C6.33 7.31 6.66 9.62 7 12 C1.30837004 7.8061674 1.30837004 7.8061674 0 4 C0 2.68 0 1.36 0 0 Z " fill="#559DE5" transform="translate(203,61)"/>
<path d="M0 0 C1.98 0 3.96 0 6 0 C6 0.99 6 1.98 6 3 C3 5 3 5 0.3125 4.625 C-0.450625 4.41875 -1.21375 4.2125 -2 4 C-1.34 2.68 -0.68 1.36 0 0 Z " fill="#2771D9" transform="translate(133,235)"/>
<path d="M0 0 C-0.33 0.99 -0.66 1.98 -1 3 C-2.98 3.33 -4.96 3.66 -7 4 C-7.33 2.68 -7.66 1.36 -8 0 C-4.71023192 -1.09658936 -3.28696233 -0.79953138 0 0 Z " fill="#4D7DB4" transform="translate(145,210)"/>
<path d="M0 0 C-0.375 1.9375 -0.375 1.9375 -1 4 C-1.99 4.495 -1.99 4.495 -3 5 C-3 4.01 -3 3.02 -3 2 C-7.455 3.485 -7.455 3.485 -12 5 C-5.5 -1.96428571 -5.5 -1.96428571 0 0 Z " fill="#7A9CCA" transform="translate(91,69)"/>
<path d="M0 0 C5.77759884 -0.12036664 11.27959989 0.1679418 17 1 C12.25 5 12.25 5 10 5 C10 4.34 10 3.68 10 3 C6.7 2.34 3.4 1.68 0 1 C0 0.67 0 0.34 0 0 Z " fill="#789ED2" transform="translate(116,57)"/>
<path d="M0 0 C2.94002463 1.38742735 5.55466652 2.96829508 8.1875 4.875 C9.22970703 5.61363281 9.22970703 5.61363281 10.29296875 6.3671875 C12.2303394 8.22032464 12.62073124 9.38474375 13 12 C7.90789714 8.43679155 3.77339973 4.95258714 0 0 Z " fill="#417CBE" transform="translate(37,205)"/>
<path d="M0 0 C0.66 0 1.32 0 2 0 C2 0.66 2 1.32 2 2 C2.99 2 3.98 2 5 2 C5.268125 2.763125 5.53625 3.52625 5.8125 4.3125 C6.94424112 6.87380884 7.91223401 8.19692938 10 10 C9.67 10.99 9.34 11.98 9 13 C7.49710267 11.02297434 5.99758658 9.0435417 4.5 7.0625 C4.07074219 6.49853516 3.64148438 5.93457031 3.19921875 5.35351562 C0 1.11328125 0 1.11328125 0 0 Z " fill="#4880C2" transform="translate(27,192)"/>
<path d="M0 0 C1.65 0.33 3.3 0.66 5 1 C4.67 1.66 4.34 2.32 4 3 C3.01 3 2.02 3 1 3 C1 4.65 1 6.3 1 8 C0.01 7.67 -0.98 7.34 -2 7 C-1.125 2.25 -1.125 2.25 0 0 Z " fill="#79A0C8" transform="translate(177,35)"/>
<path d="M0 0 C0.99 0 1.98 0 3 0 C3.33 1.65 3.66 3.3 4 5 C4.99 5 5.98 5 7 5 C7 5.66 7 6.32 7 7 C5.02 7 3.04 7 1 7 C0.67 4.69 0.34 2.38 0 0 Z " fill="#3983DF" transform="translate(82,159)"/>
<path d="M0 0 C1.3271261 3.9813783 1.06915913 7.85045227 1 12 C-0.32 11.67 -1.64 11.34 -3 11 C-2.44894091 7.0507432 -1.61064629 3.65079826 0 0 Z " fill="#5683BD" transform="translate(179,148)"/>
<path d="M0 0 C0.763125 0.20625 1.52625 0.4125 2.3125 0.625 C2.3125 1.615 2.3125 2.605 2.3125 3.625 C-0.6575 3.13 -0.6575 3.13 -3.6875 2.625 C-4.0175 5.595 -4.3475 8.565 -4.6875 11.625 C-5.0175 11.625 -5.3475 11.625 -5.6875 11.625 C-5.76840971 10.00081255 -5.82664995 8.37548255 -5.875 6.75 C-5.90980469 5.84507813 -5.94460937 4.94015625 -5.98046875 4.0078125 C-5.88378906 3.22148438 -5.78710938 2.43515625 -5.6875 1.625 C-2.6875 -0.375 -2.6875 -0.375 0 0 Z " fill="#F1F0F0" transform="translate(106.6875,108.375)"/>
<path d="M0 0 C1.1875 2.5625 1.1875 2.5625 2 5 C1.01 5 0.02 5 -1 5 C-1 4.01 -1 3.02 -1 2 C-2.65 2 -4.3 2 -6 2 C-6 2.66 -6 3.32 -6 4 C-6.66 4 -7.32 4 -8 4 C-7 1 -7 1 -5.125 -0.25 C-3 -1 -3 -1 0 0 Z " fill="#4A7BB8" transform="translate(33,185)"/>
<path d="M0 0 C2.31 1.98 4.62 3.96 7 6 C6.34 7.32 5.68 8.64 5 10 C4.01 9.67 3.02 9.34 2 9 C2.66 8.67 3.32 8.34 4 8 C4 7.01 4 6.02 4 5 C3.01 5 2.02 5 1 5 C0.67 3.35 0.34 1.7 0 0 Z " fill="#4E82BA" transform="translate(85,159)"/>
<path d="M0 0 C1.134375 0.020625 2.26875 0.04125 3.4375 0.0625 C3.4375 0.3925 3.4375 0.7225 3.4375 1.0625 C1.7875 1.3925 0.1375 1.7225 -1.5625 2.0625 C-2.2225 5.0325 -2.8825 8.0025 -3.5625 11.0625 C-3.8925 11.0625 -4.2225 11.0625 -4.5625 11.0625 C-4.58938151 9.41675434 -4.60884123 7.77088587 -4.625 6.125 C-4.63660156 5.20847656 -4.64820313 4.29195313 -4.66015625 3.34765625 C-4.49885955 -0.42668664 -3.92591522 0.06887571 0 0 Z " fill="#EFEFEF" transform="translate(134.5625,108.9375)"/>
<path d="M0 0 C1.32 0.99 2.64 1.98 4 3 C3.67 4.32 3.34 5.64 3 7 C-0.65316671 5.75023244 -1.78065836 5.32901247 -4 2 C-3.01 2 -2.02 2 -1 2 C-1 2.66 -1 3.32 -1 4 C-0.34 4 0.32 4 1 4 C0.67 2.68 0.34 1.36 0 0 Z " fill="#80A3CF" transform="translate(177,65)"/>
<path d="M0 0 C0.3125 2.3125 0.3125 2.3125 0 5 C-2.5 6.8125 -2.5 6.8125 -5 8 C-4.67 5.69 -4.34 3.38 -4 1 C-1 0 -1 0 0 0 Z " fill="#EAEEF6" transform="translate(129,231)"/>
<path d="M0 0 C2.64 0 5.28 0 8 0 C7.34 0.66 6.68 1.32 6 2 C5.01 2 4.02 2 3 2 C3 2.99 3 3.98 3 5 C1.68 4.67 0.36 4.34 -1 4 C-0.67 2.68 -0.34 1.36 0 0 Z " fill="#4775B1" transform="translate(109,174)"/>
<path d="M0 0 C0.99 0.33 1.98 0.66 3 1 C3.6875 3.0625 3.6875 3.0625 4 5 C2.68 4.67 1.36 4.34 0 4 C0 5.65 0 7.3 0 9 C-1.3950848 6.70221327 -2.07438619 5.5207033 -1.6875 2.8125 C-1 1 -1 1 0 0 Z " fill="#6C95B4" transform="translate(164,111)"/>
<path d="M0 0 C3.36338044 3.36338044 4 6.28835716 4 11 C2.35 11 0.7 11 -1 11 C-1 10.34 -1 9.68 -1 9 C-0.01 9 0.98 9 2 9 C1.67 8.2575 1.34 7.515 1 6.75 C0 4 0 4 0 0 Z " fill="#6C91C8" transform="translate(182,98)"/>
<path d="M0 0 C0 0.99 0 1.98 0 3 C-2.31 3 -4.62 3 -7 3 C-7 2.01 -7 1.02 -7 0 C-3.86650268 -1.04449911 -3.01031744 -0.93423645 0 0 Z " fill="#2C71D5" transform="translate(149,234)"/>
<path d="M0 0 C0.66 0 1.32 0 2 0 C4 5.625 4 5.625 4 9 C3.01 8.67 2.02 8.34 1 8 C-0.35439668 5.29120665 -0.06501451 2.99066732 0 0 Z " fill="#EDEDF9" transform="translate(111,229)"/>
<path d="M0 0 C2.64 0 5.28 0 8 0 C8 0.99 8 1.98 8 3 C6.68 2.67 5.36 2.34 4 2 C4 2.66 4 3.32 4 4 C2.68 4 1.36 4 0 4 C0 2.68 0 1.36 0 0 Z " fill="#585856" transform="translate(115,227)"/>
<path d="M0 0 C0.66 0 1.32 0 2 0 C2.6496875 1.36125 2.6496875 1.36125 3.3125 2.75 C4.70517271 5.43218449 6.11112757 7.66139605 8 10 C4.18315774 8.44499019 1.80804268 5.96404505 -1 3 C-0.67 2.01 -0.34 1.02 0 0 Z " fill="#5382C0" transform="translate(60,188)"/>
<path d="M0 0 C1.65 0 3.3 0 5 0 C4.01 0.33 3.02 0.66 2 1 C0.89786379 3.72633694 0 6.04144033 0 9 C-0.66 9 -1.32 9 -2 9 C-2.33 9.66 -2.66 10.32 -3 11 C-2.44894091 7.0507432 -1.61064629 3.65079826 0 0 Z " fill="#6A96CE" transform="translate(54,98)"/>
<path d="M0 0 C1.32 1.32 2.64 2.64 4 4 C3.01 4.495 3.01 4.495 2 5 C2 6.65 2 8.3 2 10 C0.68 8.68 -0.64 7.36 -2 6 C-1.67 5.38125 -1.34 4.7625 -1 4.125 C0.14193235 2.08981656 0.14193235 2.08981656 0 0 Z " fill="#6C9BC6" transform="translate(174,86)"/>
<path d="M0 0 C4.67692308 1.47692308 4.67692308 1.47692308 6.3125 4.125 C6.539375 4.74375 6.76625 5.3625 7 6 C4.03824877 5.38722388 2.61941217 4.74627478 0 3 C0 2.01 0 1.02 0 0 Z " fill="#3580CF" transform="translate(46,205)"/>
<path d="M0 0 C2.31 0.33 4.62 0.66 7 1 C7 1.99 7 2.98 7 4 C4.69 4 2.38 4 0 4 C0 2.68 0 1.36 0 0 Z " fill="#275BB5" transform="translate(112,191)"/>
<path d="M0 0 C4.95 0.99 4.95 0.99 10 2 C10 2.66 10 3.32 10 4 C3.49618902 4.36814024 3.49618902 4.36814024 1.0625 2.5625 C0 1 0 1 0 0 Z " fill="#3075BE" transform="translate(102,189)"/>
<path d="M0 0 C1.99954746 -0.04254356 4.00041636 -0.04080783 6 0 C7 1 7 1 7.09765625 3.50390625 C7.08605469 4.51324219 7.07445312 5.52257812 7.0625 6.5625 C7.05347656 7.57441406 7.04445312 8.58632812 7.03515625 9.62890625 C7.02355469 10.41136719 7.01195312 11.19382813 7 12 C6.67 12 6.34 12 6 12 C5.67 9.03 5.34 6.06 5 3 C2.525 2.01 2.525 2.01 0 1 C0 0.67 0 0.34 0 0 Z " fill="#688FBD" transform="translate(186,125)"/>
<path d="M0 0 C-0.33 0.66 -0.66 1.32 -1 2 C-2.32 2 -3.64 2 -5 2 C-5.33 3.65 -5.66 5.3 -6 7 C-6.66 6.34 -7.32 5.68 -8 5 C-7.625 2.375 -7.625 2.375 -7 0 C-3.86650268 -1.04449911 -3.01031744 -0.93423645 0 0 Z " fill="#7192C7" transform="translate(200,91)"/>
<path d="M0 0 C0.99 0 1.98 0 3 0 C4.125 3.75 4.125 3.75 3 6 C3.66 6.33 4.32 6.66 5 7 C1.125 6.125 1.125 6.125 0 5 C-0.04063832 3.33382885 -0.042721 1.66611905 0 0 Z " fill="#659CDE" transform="translate(176,91)"/>
<path d="M0 0 C0.33 0 0.66 0 1 0 C0.74438677 2.3431213 0.40729228 4.67843403 0 7 C-0.99 7.495 -0.99 7.495 -2 8 C-2 7.34 -2 6.68 -2 6 C-2.66 5.67 -3.32 5.34 -4 5 C-2.69254251 3.31295807 -1.35827971 1.64639965 0 0 Z " fill="#75A6D5" transform="translate(29,71)"/>
<path d="M0 0 C1.875 0.625 1.875 0.625 4 2 C5.25 5.125 5.25 5.125 6 8 C1.2 4.55384615 1.2 4.55384615 0.1875 1.75 C0.125625 1.1725 0.06375 0.595 0 0 Z " fill="#3E80D1" transform="translate(62,189)"/>
<path d="M0 0 C0.93423645 3.01031744 1.04449911 3.86650268 0 7 C-0.99 7 -1.98 7 -3 7 C-3.1875 4.625 -3.1875 4.625 -3 2 C-2.01 1.34 -1.02 0.68 0 0 Z " fill="#528EC8" transform="translate(214,181)"/>
<path d="M0 0 C1.9375 0.375 1.9375 0.375 4 1 C4.33 1.66 4.66 2.32 5 3 C3.68 4.32 2.36 5.64 1 7 C0.67 4.69 0.34 2.38 0 0 Z " fill="#4A81BC" transform="translate(171,169)"/>
<path d="M0 0 C1.98 0 3.96 0 6 0 C6 0.99 6 1.98 6 3 C4.35 3.33 2.7 3.66 1 4 C0.67 2.68 0.34 1.36 0 0 Z " fill="#2275CD" transform="translate(104,235)"/>
<path d="M0 0 C0.763125 0.20625 1.52625 0.4125 2.3125 0.625 C1.384375 1.0271875 1.384375 1.0271875 0.4375 1.4375 C-1.9870233 2.58056848 -1.9870233 2.58056848 -3.6875 5.625 C-3.6875 4.965 -3.6875 4.305 -3.6875 3.625 C-4.3475 3.625 -5.0075 3.625 -5.6875 3.625 C-5.6875 2.965 -5.6875 2.305 -5.6875 1.625 C-2.6875 -0.375 -2.6875 -0.375 0 0 Z " fill="#397BCA" transform="translate(96.6875,206.375)"/>
<path d="M0 0 C0.33 0.99 0.66 1.98 1 3 C1.66 3 2.32 3 3 3 C2.67 3.99 2.34 4.98 2 6 C0.02 6.33 -1.96 6.66 -4 7 C-2.68 4.69 -1.36 2.38 0 0 Z " fill="#5F8BB8" transform="translate(210,185)"/>
<path d="M0 0 C0.99 1.32 1.98 2.64 3 4 C2.01 4 1.02 4 0 4 C0.33 5.32 0.66 6.64 1 8 C-0.65 6.35 -2.3 4.7 -4 3 C-2.68 3 -1.36 3 0 3 C0 2.01 0 1.02 0 0 Z " fill="#4C7EC3" transform="translate(69,170)"/>
<path d="M0 0 C2.76223278 2.76223278 2.57856291 5.20706617 3 9 C2.01 9 1.02 9 0 9 C0 6.03 0 3.06 0 0 Z " fill="#4F85CA" transform="translate(43,153)"/>
<path d="M0 0 C1.66611905 -0.042721 3.33382885 -0.04063832 5 0 C6 1 6 1 6.0625 3.5625 C6.041875 4.366875 6.02125 5.17125 6 6 C5.34 6 4.68 6 4 6 C4 4.68 4 3.36 4 2 C2.68 2 1.36 2 0 2 C0 1.34 0 0.68 0 0 Z " fill="#5D8CCC" transform="translate(34,130)"/>
<path d="M0 0 C2.31 0.33 4.62 0.66 7 1 C7 1.99 7 2.98 7 4 C4.625 3.6875 4.625 3.6875 2 3 C1.34 2.01 0.68 1.02 0 0 Z " fill="#2979DA" transform="translate(56,218)"/>
<path d="M0 0 C2 1.3125 2 1.3125 4 3 C4 3.99 4 4.98 4 6 C2.68 5.67 1.36 5.34 0 5 C-0.5625 3.0625 -0.5625 3.0625 -1 1 C-0.67 0.67 -0.34 0.34 0 0 Z " fill="#2780E2" transform="translate(45,206)"/>
<path d="M0 0 C1.2065625 0.0309375 1.2065625 0.0309375 2.4375 0.0625 C1.28576645 2.53050047 0.38966435 4.11033565 -1.5625 6.0625 C-1.5625 4.7425 -1.5625 3.4225 -1.5625 2.0625 C-2.2225 1.7325 -2.8825 1.4025 -3.5625 1.0625 C-2.5625 0.0625 -2.5625 0.0625 0 0 Z " fill="#4F8AB8" transform="translate(189.5625,176.9375)"/>
<path d="M0 0 C1.0625 1.8125 1.0625 1.8125 2 4 C1.67 4.99 1.34 5.98 1 7 C0.01 7 -0.98 7 -2 7 C-1.125 2.25 -1.125 2.25 0 0 Z " fill="#418ADD" transform="translate(162,148)"/>
<path d="M0 0 C0.66 0.33 1.32 0.66 2 1 C2 2.98 2 4.96 2 7 C1.01 7 0.02 7 -1 7 C-0.67 4.69 -0.34 2.38 0 0 Z " fill="#6B9CD4" transform="translate(225,101)"/>
<path d="M0 0 C0.33 0.99 0.66 1.98 1 3 C-0.65 4.65 -2.3 6.3 -4 8 C-4.66 6.68 -5.32 5.36 -6 4 C-4.35 4 -2.7 4 -1 4 C-0.67 2.68 -0.34 1.36 0 0 Z " fill="#809DCB" transform="translate(44,97)"/>
<path d="M0 0 C4 4.75 4 4.75 4 7 C2.68 6.67 1.36 6.34 0 6 C0 4.02 0 2.04 0 0 Z " fill="#6A81A8" transform="translate(111,235)"/>
<path d="M0 0 C0.66 0 1.32 0 2 0 C2 0.99 2 1.98 2 3 C2.99 3.33 3.98 3.66 5 4 C3.35 4.33 1.7 4.66 0 5 C-0.5625 3.0625 -0.5625 3.0625 -1 1 C-0.67 0.67 -0.34 0.34 0 0 Z " fill="#4570A7" transform="translate(150,187)"/>
<path d="M0 0 C0.99 0.495 0.99 0.495 2 1 C2.89093449 4.64473199 3.23666047 7.42742531 2 11 C0.57741188 7.17679443 -0.24042276 4.08718695 0 0 Z " fill="#5A8ECB" transform="translate(71,138)"/>
<path d="M0 0 C3.25 -0.25 3.25 -0.25 7 0 C8.32 1.32 9.64 2.64 11 4 C7.37 3.01 3.74 2.02 0 1 C0 0.67 0 0.34 0 0 Z " fill="#77A5D3" transform="translate(135,69)"/>
<path d="M0 0 C3.3 0 6.6 0 10 0 C10 0.99 10 1.98 10 3 C6.7 2.34 3.4 1.68 0 1 C0 0.67 0 0.34 0 0 Z " fill="#77A3D1" transform="translate(136,51)"/>
</svg>
